Mean Mug- 50 Cent feat Soulja Boy [2010] - GHOST

Video
ID                               : 1
Format                           : AVC
Format/Info                      : Advanced Video Codec
Format profile                   : High@L3.1
Format settings, CABAC           : Yes
Format settings, ReFrames        : 1 frame
Codec ID                         : avc1
Codec ID/Info                    : Advanced Video Coding
Duration                         : 3mn 1s
Bit rate mode                    : Variable
Bit rate                         : 1 026 Kbps
Maximum bit rate                 : 1 759 Kbps
Width                            : 1 280 pixels
Height                           : 720 pixels
Display aspect ratio             : 16:9
Frame rate mode                  : Variable
Frame rate                       : 30.000 fps
Minimum frame rate               : 29.412 fps
Maximum frame rate               : 30.303 fps
Color space                      : YUV
Chroma subsampling               : 4:2:0
Bit depth                        : 8 bits
Scan type                        : Progressive
Bits/(Pixel*Frame)               : 0.037
Stream size                      : 22.3 MiB (88%)

Audio
ID                               : 2
Format                           : AAC
Format/Info                      : Advanced Audio Codec
Format version                   : Version 4
Format profile                   : LC
Format settings, SBR             : No
Codec ID                         : 40
Duration                         : 3mn 1s
Bit rate mode                    : Variable
Bit rate                         : 128 Kbps
Maximum bit rate                 : 142 Kbps
Channel(s)                       : 2 channels
Channel positions                : Front: L R
Sampling rate                    : 44.1 KHz
Stream size                      : 2.78 MiB (11%)